<svg viewBox="0 0 22 32" xmlns="http://www.w3.org/2000/svg">
    <path d="M21.9985 0.0683594C21.9985 0.0683594 21.9299 0.136769 21.8614 0.205178C21.6558 0.410407 18.846 3.28361 18.5033 3.62566C18.4348 3.69407 18.3663 3.76247 18.2977 3.83088V3.89929C18.2977 3.89929 18.2977 11.2191 18.2977 14.8448C18.2977 15.9394 18.2977 18.1969 18.2977 18.2653C18.2977 18.2653 10.8963 18.2653 7.19553 18.2653C7.05846 18.2653 6.9214 18.2653 6.78433 18.2653C6.7158 18.2653 3.2892 18.3337 1.64443 16.8287C0.136719 15.5973 0.205251 12.9294 0.205251 12.9294C0.205251 12.9294 0.205251 12.3821 0.205251 12.1084C0.205251 11.6296 0.205251 7.79864 0.205251 6.29363C0.205251 6.22522 0.205251 6.0884 0.205251 6.01999C0.205251 5.95158 0.205251 4.85703 0.479379 3.89929C0.684976 3.00997 1.02764 2.46269 1.1647 2.25746C1.3703 1.98383 1.57589 1.71019 1.78149 1.50496C1.91855 1.36814 2.60387 0.820864 3.70039 0.478817C4.7969 0.136769 6.03048 0.136769 6.09901 0.136769C6.44167 0.136769 6.85287 0.136769 7.19553 0.136769C10.6907 0.136769 14.1173 0.136769 17.6124 0.136769C18.983 0.0683594 21.9985 0.0683594 21.9985 0.0683594ZM13.7746 14.366C13.7746 10.8771 13.7746 3.89929 13.7746 3.89929C13.7746 3.89929 9.04589 3.89929 8.29204 3.89929C8.01791 3.89929 7.74378 3.89929 7.40112 3.89929C7.26406 3.89929 7.12699 3.89929 6.9214 3.89929C6.85287 3.89929 5.68782 3.9677 5.2081 4.51498C4.86543 5.06226 4.72837 5.95158 4.72837 6.15681C4.72837 6.29363 4.72837 6.49886 4.72837 6.63567C4.72837 6.70408 4.72837 9.85092 4.72837 11.4243C4.72837 11.6296 4.72837 11.8348 4.72837 12.04C4.72837 12.1084 4.7969 12.9294 5.13956 13.4766C5.48222 14.0239 6.09901 14.1607 6.23608 14.2291C6.44167 14.2975 6.7158 14.2975 6.9214 14.366C7.05846 14.366 7.19553 14.366 7.33259 14.4344C7.46965 14.4344 7.81232 14.4344 7.94938 14.4344C9.52562 14.4344 11.1019 14.4344 12.6781 14.4344C13.0208 14.4344 13.3634 14.4344 13.7061 14.4344C13.7061 14.366 13.7746 14.366 13.7746 14.366ZM9.59415 26.7481C5.75635 26.4744 3.22066 23.6012 2.80947 23.2592L0.136719 25.5167C0.136719 25.5851 1.43883 27.569 3.35773 28.9372C5.61929 30.579 9.18296 31.9472 13.2949 30.6474C17.6809 29.2108 19.4628 25.9956 19.874 25.5167L17.2697 23.2592C16.653 23.9433 13.569 27.0217 9.59415 26.7481Z" fill="#fff"/>
</svg>
