<svg width="80" height="80" xmlns="http://www.w3.org/2000/svg">
 <!-- Created with Method Draw - http://github.com/duopixel/Method-Draw/ -->

 <g>
  <title>background</title>
  <rect fill="none" id="canvas_background" height="82" width="82" y="-1" x="-1"/>
  <g display="none" overflow="visible" y="0" x="0" height="100%" width="100%" id="canvasGrid">
   <rect fill="url(#gridpattern)" stroke-width="0" y="0" x="0" height="100%" width="100%"/>
  </g>
 </g>
 <g>
  <title>Layer 1</title>
  <g stroke="null" id="svg_8">
   <path stroke="null" id="svg_4" fill="#2795CE" d="m68.854615,12.963098c-7.226328,-7.825951 -17.573386,-12.726565 -29.065108,-12.726565c-13.192499,0 -24.875656,6.45821 -32.061641,16.386006c8.389977,-3.689501 21.274754,-4.699684 29.963751,-4.999496c8.390768,-0.289528 24.970584,0.793433 31.162997,1.340055z"/>
   <path stroke="null" id="svg_5" fill="#2795CE" d="m79.342482,39.789507c0,-6.841873 -1.737167,-13.277933 -4.794612,-18.891292c-14.083232,-3.881729 -43.407016,-6.278639 -51.838128,0c-11.086699,8.257079 19.177655,11.69977 24.870119,12.598413c5.693255,0.899435 24.251511,3.895968 31.752337,7.191522c0.00712,-0.298229 0.010284,-0.598041 0.010284,-0.898644z"/>
   <path stroke="null" id="svg_6" fill="#2795CE" d="m1.991103,28.103186c-1.140708,3.693457 -1.75457,7.617903 -1.75457,11.686322c0,4.960734 0.912883,9.707882 2.580436,14.083232c6.708184,1.498267 14.224832,3.051116 23.488929,3.595365c15.281687,0.899435 33.559907,2.397701 39.851995,-5.992276c6.583988,-8.778387 -31.162997,-11.986133 -45.246229,-14.682855c-10.954592,-2.09789 -17.207917,-6.492225 -18.920561,-8.689788z"/>
   <path stroke="null" id="svg_7" fill="#2795CE" d="m74.222745,59.266183c-5.58488,1.498267 -20.709937,4.734491 -36.531127,4.4948c-15.82119,-0.239691 -27.366703,-1.904871 -31.162206,-2.557495c7.040429,10.913457 19.306598,18.138994 33.260096,18.138994c7.204179,0 13.959036,-1.92623 19.776487,-5.291397l18.578032,4.691774c-3.296345,-2.39691 -5.57776,-4.552547 -6.591899,-7.190731c-1.03787,-2.697513 -1.199246,-8.390768 2.670617,-12.285945z"/>
  </g>
 </g>
</svg>